<svg width="42" height="16" viewBox="0 0 42 16" fill="none" xmlns="http://www.w3.org/2000/svg">
<g clip-path="url(#clip0_605_2)">
<mask id="mask0_605_2" style="mask-type:luminance" maskUnits="userSpaceOnUse" x="0" y="0" width="42" height="16">
<path d="M42 0H0V16H42V0Z" fill="white"/>
</mask>
<g mask="url(#mask0_605_2)">
<mask id="mask1_605_2" style="mask-type:luminance" maskUnits="userSpaceOnUse" x="14" y="0" width="13" height="4">
<path d="M26.0015 0H14.0044V3.76652H26.0015V0Z" fill="white"/>
</mask>
<g mask="url(#mask1_605_2)">
<path fill-rule="evenodd" clip-rule="evenodd" d="M24.4675 2.64428V3.29692V3.29723L25.9979 2.63024H26.0016V1.95983H25.9979L24.4675 1.2894V1.94205L25.2526 2.29316L24.4675 2.64428ZM22.9101 3.76653L23.8103 0.366089H24.3446L23.4446 3.76653H22.9101ZM15.5399 1.32028V1.97292L14.7543 2.32435L15.5399 2.67765V3.33123L14.0076 2.66049H14.0044V1.9907H14.0076L15.5399 1.32028Z" fill="url(#paint0_linear_605_2)"/>
<path fill-rule="evenodd" clip-rule="evenodd" d="M17.7916 1.19644C17.9436 1.39321 18.0237 1.65264 18.0141 1.91831V3.36674H17.4798V2.05146C17.486 1.90491 17.4463 1.76085 17.3681 1.64641C17.3315 1.5962 17.2857 1.5566 17.2342 1.53009C17.1828 1.5039 17.1268 1.49143 17.0708 1.49424C16.7362 1.49424 16.5687 1.76739 16.5687 2.31371V3.36674H16.0344V0.988768H16.5687V1.20361C16.6526 1.10757 16.7525 1.03273 16.8616 0.983466C16.9711 0.934509 17.0879 0.912058 17.2046 0.917983C17.3136 0.912683 17.4224 0.934509 17.5235 0.982531C17.6247 1.03055 17.716 1.10352 17.7913 1.19644H17.7916Z" fill="white"/>
<path fill-rule="evenodd" clip-rule="evenodd" d="M18.6946 0V3.40044H19.2289V0H18.6946Z" fill="white"/>
<path fill-rule="evenodd" clip-rule="evenodd" d="M22.2486 3.2754H21.8029L21.3656 1.87469L20.9244 3.2754H20.4792L19.7302 0.893372H20.3012L20.7221 2.31779L21.1557 0.893372H21.5726L22.0063 2.32277L22.4272 0.893372H22.9981L22.2486 3.2754Z" fill="white"/>
</g>
<path d="M6.92138 5.68524V8.84521L5.36401 6.76784L6.92138 5.68524Z" fill="url(#paint1_linear_605_2)"/>
<path d="M6.92121 8.84519V8.86855H4.83203L5.36385 6.76782L6.92121 8.84519Z" fill="url(#paint2_linear_605_2)"/>
<path d="M5.36379 6.76786L4.83197 8.86858L4.40112 5.97424L5.36379 6.76786Z" fill="url(#paint3_linear_605_2)"/>
<path d="M6.92114 5.68524L5.36377 6.76784L4.4011 5.97422L2.84961 5.70262C3.01186 5.69122 3.17998 5.68524 3.3561 5.68524H6.92114Z" fill="#54E694"/>
<path d="M6.92132 5.68542L5.36395 6.7682L4.40112 5.97459L5.3798 6.65847L6.92132 5.68542Z" fill="#E6FBEF"/>
<path d="M2.73391 5.71185L1.44432 7.7675L0.0187988 8.04344C0.0888905 7.35466 0.359454 6.80767 0.829509 6.40117C1.27555 6.0155 1.91029 5.78628 2.73391 5.71185Z" fill="url(#paint4_linear_605_2)"/>
<path d="M5.97119 13.029L3.14432 12.3315L3.14383 12.3309C2.84435 12.1066 2.52117 11.8888 2.17464 11.6762C1.79575 11.4448 1.44529 11.1819 1.1231 10.8875C0.801071 10.5936 0.533448 10.2508 0.320068 9.86028C0.106363 9.46972 0 8.98935 0 8.42008C0 8.29026 0.00637171 8.16478 0.0186255 8.04364L1.44415 7.7677L5.97102 13.029H5.97119Z" fill="url(#paint5_linear_605_2)"/>
<path d="M2.99394 9.56858L1.44456 7.91382L0.019043 8.04382L1.44456 7.7677L2.99394 9.56858Z" fill="#E6FBEF"/>
<path d="M7.18251 13.1816C7.18251 13.2403 7.18105 13.2985 7.1781 13.3554L5.97135 13.029L5.60913 10.2958C5.765 10.424 5.91499 10.5587 6.05958 10.6994C6.38178 11.0128 6.64923 11.3704 6.86261 11.77C7.07583 12.1709 7.18268 12.641 7.18268 13.1815L7.18251 13.1816Z" fill="url(#paint6_linear_605_2)"/>
<path d="M7.17827 13.3556L5.97135 13.0291L5.60913 10.2959L6.03377 12.9601L7.17827 13.3556Z" fill="#E6FBEF"/>
<path d="M7.17815 13.3553C7.14139 14.0935 6.86642 14.6791 6.35307 15.1132C5.80001 15.5815 4.95794 15.8152 3.82666 15.8152L5.97124 13.029L7.178 13.3554L7.17815 13.3553Z" fill="url(#paint7_linear_605_2)"/>
<path d="M5.97118 13.029L3.82661 15.8152H2.58489L2.53979 15.5262C3.19137 15.524 3.65506 15.4154 3.93101 15.2003C4.20942 14.9831 4.34862 14.6626 4.34862 14.2383C4.34862 13.8141 4.24177 13.4735 4.02855 13.1886C3.81534 12.9045 3.54755 12.6389 3.22552 12.3929C3.19856 12.3723 3.17161 12.3515 3.14416 12.3315L5.97102 13.029H5.97118Z" fill="url(#paint8_linear_605_2)"/>
<path d="M2.08944 12.6317L1.22334 15.2284L0.000244141 12.6317H2.08944Z" fill="url(#paint9_linear_605_2)"/>
<path d="M2.08951 12.632L1.22342 15.2287L0.000488281 12.632L1.22342 14.9858L2.08951 12.632Z" fill="#E6FBEF"/>
<path d="M1.22334 15.2284L0.000244141 15.815V12.6315L1.22334 15.2281V15.2284Z" fill="url(#paint10_linear_605_2)"/>
<path d="M2.58498 15.8152H0.000244141L1.22334 15.2285L2.58498 15.8152Z" fill="url(#paint11_linear_605_2)"/>
<path d="M5.97121 13.029L1.44434 7.76751L2.73393 5.71187C2.77167 5.70861 2.8104 5.70535 2.84912 5.70264H2.84961L4.40109 5.97424C4.10505 5.97424 3.85703 6.01769 3.65655 6.1046C3.45608 6.19151 3.29531 6.30232 3.17311 6.43758C3.05155 6.57284 2.9643 6.72221 2.91235 6.88626C2.8599 7.05031 2.83392 7.20946 2.83392 7.36374C2.83392 7.71084 2.94028 8.02227 3.15399 8.29713C3.36671 8.57198 3.63482 8.83489 3.95702 9.08585C4.27922 9.33681 4.62951 9.58995 5.00807 9.84524C5.21688 9.98648 5.41734 10.1364 5.609 10.295V10.2956L5.97121 13.0287V13.029Z" fill="url(#paint12_linear_605_2)"/>
<path d="M4.16198 10.9261L1.44458 7.76775L2.73417 5.71228L1.59979 7.81844L4.16198 10.9263V10.9261Z" fill="#E6FBEF"/>
<path d="M2.58479 15.8152L1.22314 15.2285L2.08924 12.6319L2.52057 15.5262H2.53969L2.58479 15.8152Z" fill="url(#paint13_linear_605_2)"/>
<path d="M15.2001 5.68524V8.86874L13.2217 5.99342L15.2001 5.68524Z" fill="url(#paint14_linear_605_2)"/>
<path d="M13.472 6.10369L15.2004 8.86875L13.2219 5.99341L15.2002 5.68542L13.4717 6.10369H13.472Z" fill="#E6FBEF"/>
<path d="M15.2002 5.68524L13.2219 5.99324L12.4189 5.97422L8.67139 5.68524H15.2002Z" fill="#54E694"/>
<path d="M12.4189 5.97422H11.5439L10.5536 6.93079L8.67139 5.68524L12.4189 5.97422Z" fill="#54E694"/>
<path d="M11.5438 5.97459L10.5537 6.93116L8.67139 5.68542L10.5449 6.7883L11.5438 5.97459Z" fill="#E6FBEF"/>
<path d="M13.2217 5.99325L13.1107 8.86858L12.4187 5.97424L13.2217 5.99325Z" fill="url(#paint15_linear_605_2)"/>
<path d="M15.2001 12.6317V15.8152L13.0928 15.5376L15.2001 12.6319V12.6317Z" fill="url(#paint16_linear_605_2)"/>
<path d="M13.1108 12.6317L13.0927 15.5375L12.4187 15.5261L13.1108 12.6317Z" fill="url(#paint17_linear_605_2)"/>
<path d="M15.2001 15.8152H11.283L11.5439 15.5262H12.4188L13.0928 15.5376L15.2001 15.8152Z" fill="url(#paint18_linear_605_2)"/>
<path d="M10.5536 6.93097L9.5963 14.4973L8.67139 15.8154V5.68524L10.5537 6.93097H10.5536Z" fill="url(#paint19_linear_605_2)"/>
<path d="M14.1554 9.91062V10.2003H11.5438V15.5262L9.59619 14.4973L10.5535 6.931L11.5438 5.97443V9.91062H14.1554Z" fill="url(#paint20_linear_605_2)"/>
<path d="M15.2001 12.6317L13.0928 15.5375L13.1109 12.6317H15.2001Z" fill="url(#paint21_linear_605_2)"/>
<path d="M15.2003 12.632L13.093 15.5378L13.1112 12.632L13.2415 15.1565L15.2003 12.632Z" fill="#E6FBEF"/>
<path d="M11.5439 15.5262L11.2831 15.8151H8.67139L9.5963 14.4972L11.5439 15.526V15.5262Z" fill="url(#paint22_linear_605_2)"/>
<path d="M15.2 8.86873H13.1108L13.2216 5.99341L15.2 8.86873Z" fill="url(#paint23_linear_605_2)"/>
<path d="M24.7192 5.68835L23.5948 6.57843L22.1506 5.68835H24.7192Z" fill="url(#paint24_linear_605_2)"/>
<path d="M24.7192 5.68835L23.5948 6.57843L22.1506 5.68835L23.5948 6.44599L24.7192 5.68835Z" fill="#E6FBEF"/>
<path d="M24.7195 5.68835V8.86873L23.595 6.57843L24.7195 5.68835Z" fill="url(#paint25_linear_605_2)"/>
<path d="M24.7194 8.86879H22.7625L23.5949 6.57849L24.7194 8.86879Z" fill="url(#paint26_linear_605_2)"/>
<path d="M23.5949 6.57843L22.7623 8.86873L22.0708 5.97708H21.9807L22.1374 5.68835H22.1507L23.5949 6.57843Z" fill="url(#paint27_linear_605_2)"/>
<path d="M17.3158 6.7217L16.3828 8.86873V5.68835L17.3158 6.7217Z" fill="url(#paint28_linear_605_2)"/>
<path d="M16.3828 8.86873L17.2237 6.76187L16.3828 5.68835L17.3158 6.7217L16.3828 8.86873Z" fill="#E6FBEF"/>
<path d="M18.3397 8.86877H16.3828L17.3158 6.72174L18.3397 8.86877Z" fill="url(#paint29_linear_605_2)"/>
<path d="M18.998 5.68835L17.3158 6.7217L16.3828 5.68835H18.998Z" fill="url(#paint30_linear_605_2)"/>
<path d="M18.998 5.68835L17.3158 6.7217L16.3828 5.68835L17.3158 6.60882L18.998 5.68835Z" fill="#E6FBEF"/>
<path d="M19.1036 5.97708H19.0312L18.3396 8.86873L17.3157 6.7217L18.9979 5.68835H19.0062L19.1036 5.97708Z" fill="url(#paint31_linear_605_2)"/>
<path d="M20.2056 9.24756L19.1096 7.9689V5.995L20.2056 9.24756Z" fill="url(#paint32_linear_605_2)"/>
<path d="M22.1374 5.68835L21.9807 5.97708H21.9797V5.97925L20.2054 9.24755L19.1095 5.99498V5.97708H19.1036L19.0061 5.68835H22.1374Z" fill="url(#paint33_linear_605_2)"/>
<path d="M21.9798 5.97931L20.2056 9.24761L19.1096 5.99504L20.2056 8.97245L21.9798 5.97931Z" fill="#E6FBEF"/>
<path d="M21.9798 5.97931V11.7121L20.2056 9.24761L21.9798 5.97931Z" fill="url(#paint34_linear_605_2)"/>
<path d="M21.9798 11.7121V15.8086L21.2785 14.5554L20.2056 9.24756L21.9798 11.7121Z" fill="url(#paint35_linear_605_2)"/>
<path d="M21.9798 15.8086H19.1096L21.2786 14.5554L21.9798 15.8086Z" fill="url(#paint36_linear_605_2)"/>
<path d="M21.2786 14.5555L19.1096 15.8086V7.96893L20.2056 9.24759L21.2786 14.5555Z" fill="url(#paint37_linear_605_2)"/>
<path d="M19.1096 15.8086L21.1351 14.4734L20.2056 9.24756L21.2786 14.5554L19.1096 15.8086Z" fill="#E6FBEF"/>
<path d="M33.1754 5.68524L32.2733 8.07333L30.3027 5.68524H33.1754Z" fill="url(#paint38_linear_605_2)"/>
<path d="M33.1756 5.68542L32.2736 8.0735L30.303 5.68542L32.2936 7.87306L33.1756 5.68542Z" fill="#E6FBEF"/>
<path d="M32.2733 8.07333L30.3027 11.5138V5.68524L32.2733 8.07333Z" fill="url(#paint39_linear_605_2)"/>
<path d="M33.1755 5.68524V12.5447C33.1755 12.8728 33.145 13.1824 33.0837 13.4731L32.2734 8.07314L33.1755 5.68524Z" fill="url(#paint40_linear_605_2)"/>
<path d="M32.3612 8.17092L33.0838 13.4734L32.2734 8.0735L33.1756 5.68542L32.3612 8.17073V8.17092Z" fill="#E6FBEF"/>
<path d="M33.0835 13.4731C33.0497 13.6349 33.0066 13.7909 32.9537 13.9408C32.805 14.3608 32.5961 14.7203 32.3266 15.0192C32.1781 15.1838 32.0136 15.3278 31.8325 15.4511L30.9761 14.7422L32.2732 8.07336L33.0834 13.4732L33.0835 13.4731Z" fill="url(#paint41_linear_605_2)"/>
<path d="M32.2733 8.07336L30.9762 14.7422L30.113 15.4609C30.2395 15.3208 30.3027 15.1301 30.3027 14.8886V11.5136L32.2733 8.07318V8.07336Z" fill="url(#paint42_linear_605_2)"/>
<path d="M31.8326 15.4513C31.684 15.5529 31.5248 15.6402 31.3536 15.7142C30.9752 15.8782 30.5551 15.9602 30.0939 15.9602H29.1713L28.9424 15.2823C28.9732 15.3491 29.0129 15.4084 29.0619 15.4611C29.1923 15.6006 29.3708 15.6707 29.5972 15.6707C29.8236 15.6707 29.9869 15.6006 30.1129 15.4611L30.9762 14.7424L31.8326 15.4513Z" fill="url(#paint43_linear_605_2)"/>
<path d="M28.8658 5.68524L27.2587 10.2952L25.9934 5.68524H28.8658Z" fill="url(#paint44_linear_605_2)"/>
<path d="M28.176 7.66467L27.2588 10.2956L26.6887 8.21765L27.248 10.0278L28.176 7.66467Z" fill="#E6FBEF"/>
<path d="M28.8939 15.1376L27.2588 10.2952L28.8661 5.68524V14.8888C28.8661 14.979 28.8754 15.0621 28.8939 15.1376Z" fill="url(#paint45_linear_605_2)"/>
<path d="M28.8661 15.1379L27.2588 10.2955L28.8386 5.68542V5.68976L27.351 10.2954L28.8661 15.1379Z" fill="#E6FBEF"/>
<path d="M27.2587 10.2952L25.9934 11.9565V5.68524L27.2587 10.2952Z" fill="url(#paint46_linear_605_2)"/>
<path d="M29.1713 15.9603H29.0752C28.6135 15.9603 28.1934 15.8782 27.8151 15.7142C27.4362 15.5502 27.112 15.3187 26.8421 15.0194C26.5726 14.7206 26.3632 14.3609 26.2157 13.941C26.067 13.5217 25.9937 13.0561 25.9937 12.5449V12.2857L29.1714 15.9603H29.1713Z" fill="url(#paint47_linear_605_2)"/>
<path d="M29.1712 15.9602L25.9934 12.2857V11.9565L27.2587 10.2952L28.8938 15.1376V15.1386C28.9055 15.1898 28.9223 15.2376 28.9424 15.282L29.1712 15.96V15.9602Z" fill="url(#paint48_linear_605_2)"/>
<path d="M41.2415 9.29681V10.743C41.0258 10.9706 40.7714 11.1466 40.4783 11.271C40.1607 11.4062 39.8057 11.4736 39.4142 11.4736H37.6907V11.1846H37.7559C37.9603 11.1846 38.143 11.1374 38.3028 11.0423L38.322 11.0309L41.2415 9.29681Z" fill="url(#paint49_linear_605_2)"/>
<path d="M42.0001 8.57922C42.0001 9.01378 41.9389 9.40924 41.8171 9.76611C41.6951 10.123 41.521 10.4294 41.2946 10.6852C41.2775 10.7048 41.26 10.7238 41.2417 10.7428V9.29661L41.9947 8.35687C41.9981 8.42966 42.0001 8.50408 42.0001 8.57904V8.57922Z" fill="url(#paint50_linear_605_2)"/>
<path d="M41.9945 8.35693L41.2415 9.29665L40.1941 5.78796C40.2921 5.81513 40.3867 5.84825 40.4784 5.88737C40.796 6.02262 41.068 6.21817 41.2946 6.47348C41.521 6.72932 41.695 7.03568 41.8171 7.39257C41.9176 7.68753 41.9769 8.00929 41.9945 8.35693Z" fill="url(#paint51_linear_605_2)"/>
<path d="M41.9948 8.35729L41.2417 9.29702L40.1943 5.78815L41.2417 9.04823L41.9948 8.3571V8.35729Z" fill="#E6FBEF"/>
<path d="M40.1941 5.78791L37.6907 5.97422L34.8176 5.68524H39.4142C39.6929 5.68524 39.9529 5.71946 40.1941 5.78791Z" fill="#635FED"/>
<path d="M37.6908 5.97424V11.1846L36.8113 8.36413L37.6908 5.97441V5.97424Z" fill="url(#paint52_linear_605_2)"/>
<path d="M36.8112 8.36411L34.8176 11.1846V5.68524L36.8112 8.36411Z" fill="url(#paint53_linear_605_2)"/>
<path d="M37.6907 11.1846V15.8151L35.6658 14.0844L36.8113 8.36395L37.6907 11.1844V11.1846Z" fill="url(#paint54_linear_605_2)"/>
<path d="M36.8112 8.36395L35.6657 14.0844L34.8176 15.8151V11.1846L36.8112 8.36413V8.36395Z" fill="url(#paint55_linear_605_2)"/>
<path d="M36.4371 10.2347L36.6888 8.62776L34.8179 11.1848L36.8116 8.36432L36.4371 10.2347Z" fill="#E6FBEF"/>
<path d="M37.6907 15.8151H34.8176L35.6657 14.0844L37.6907 15.8151Z" fill="url(#paint56_linear_605_2)"/>
<path d="M37.6907 5.97422L36.8112 8.36393L34.8176 5.68524L37.6907 5.97422Z" fill="url(#paint57_linear_605_2)"/>
<path d="M37.6908 5.97459L36.8116 8.3643L34.8179 5.68542L36.8116 8.12783L37.6811 5.97332L37.6908 5.97441V5.97459Z" fill="#E6FBEF"/>
<path d="M41.2415 9.29684L38.8435 6.7811C38.8235 6.73494 38.8028 6.69039 38.7809 6.64748C38.55 6.1988 38.2082 5.97446 37.7559 5.97446H37.6907L40.194 5.78815L41.2415 9.29702V9.29684Z" fill="url(#paint58_linear_605_2)"/>
<path d="M38.844 6.78129L41.0273 8.90592L40.1946 5.78815L41.2419 9.29702L38.844 6.78129Z" fill="#E6FBEF"/>
<path d="M41.2416 9.2968L38.322 11.0309C38.5014 10.9206 38.6519 10.7495 38.7745 10.5186C39.0092 10.0752 39.1269 9.42825 39.1269 8.57924C39.1269 7.81984 39.0324 7.22052 38.8435 6.78107L41.2416 9.2968Z" fill="url(#paint59_linear_605_2)"/>
<path d="M11.544 5.97461L10.6419 6.98931L9.59644 14.4976L10.5539 6.93118L11.544 5.97461Z" fill="#E6FBEF"/>
</g>
</g>
<defs>
<linearGradient id="paint0_linear_605_2" x1="14.0044" y1="2.05803" x2="26.5959" y2="2.05803" gradientUnits="userSpaceOnUse">
<stop stop-color="#8257E5"/>
<stop offset="1" stop-color="#635FED"/>
</linearGradient>
<linearGradient id="paint1_linear_605_2" x1="5.96837" y1="7.87579" x2="7.65092" y2="6.99815" gradientUnits="userSpaceOnUse">
<stop stop-color="#54E694"/>
<stop offset="1" stop-color="#635FED"/>
</linearGradient>
<linearGradient id="paint2_linear_605_2" x1="6.30624" y1="6.96427" x2="5.69262" y2="9.17904" gradientUnits="userSpaceOnUse">
<stop stop-color="#33E180"/>
<stop offset="1" stop-color="#4E55C4"/>
</linearGradient>
<linearGradient id="paint3_linear_605_2" x1="4.83949" y1="6.57863" x2="4.16441" y2="8.65559" gradientUnits="userSpaceOnUse">
<stop stop-color="#00DA60"/>
<stop offset="0.98" stop-color="#3F3F9E"/>
</linearGradient>
<linearGradient id="paint4_linear_605_2" x1="1.82174" y1="7.56073" x2="0.826107" y2="6.31723" gradientUnits="userSpaceOnUse">
<stop stop-color="#33E180"/>
<stop offset="1" stop-color="#4E55C4"/>
</linearGradient>
<linearGradient id="paint5_linear_605_2" x1="0.473977" y1="8.32972" x2="5.49827" y2="13.1945" gradientUnits="userSpaceOnUse">
<stop stop-color="#33E180"/>
<stop offset="1" stop-color="#4E55C4"/>
</linearGradient>
<linearGradient id="paint6_linear_605_2" x1="7.73002" y1="9.8509" x2="5.44365" y2="12.6017" gradientUnits="userSpaceOnUse">
<stop stop-color="#33E180"/>
<stop offset="1" stop-color="#4E55C4"/>
</linearGradient>
<linearGradient id="paint7_linear_605_2" x1="4.4838" y1="16.3861" x2="7.01928" y2="13.4678" gradientUnits="userSpaceOnUse">
<stop stop-color="#0B873D"/>
<stop offset="1" stop-color="#202059"/>
</linearGradient>
<linearGradient id="paint8_linear_605_2" x1="2.31417" y1="15.0157" x2="5.805" y2="12.729" gradientUnits="userSpaceOnUse">
<stop stop-color="#00DA60"/>
<stop offset="1" stop-color="#3F3F9E"/>
</linearGradient>
<linearGradient id="paint9_linear_605_2" x1="1.28591" y1="11.8459" x2="0.160299" y2="14.8348" gradientUnits="userSpaceOnUse">
<stop stop-color="#54E694"/>
<stop offset="1" stop-color="#635FED"/>
</linearGradient>
<linearGradient id="paint10_linear_605_2" x1="-0.692666" y1="12.5549" x2="0.868757" y2="15.4465" gradientUnits="userSpaceOnUse">
<stop stop-color="#33E180"/>
<stop offset="1" stop-color="#4E55C4"/>
</linearGradient>
<linearGradient id="paint11_linear_605_2" x1="2.43597" y1="16.2289" x2="1.00533" y2="15.7774" gradientUnits="userSpaceOnUse">
<stop stop-color="#0B873D"/>
<stop offset="1" stop-color="#202059"/>
</linearGradient>
<linearGradient id="paint12_linear_605_2" x1="2.68655" y1="6.60181" x2="8.87268" y2="12.4449" gradientUnits="userSpaceOnUse">
<stop stop-color="#54E694"/>
<stop offset="1" stop-color="#635FED"/>
</linearGradient>
<linearGradient id="paint13_linear_605_2" x1="3.03213" y1="14.5207" x2="1.64511" y2="14.0379" gradientUnits="userSpaceOnUse">
<stop stop-color="#00DA60"/>
<stop offset="1" stop-color="#3F3F9E"/>
</linearGradient>
<linearGradient id="paint14_linear_605_2" x1="13.9467" y1="5.43864" x2="16.1177" y2="8.11988" gradientUnits="userSpaceOnUse">
<stop stop-color="#54E694"/>
<stop offset="1" stop-color="#635FED"/>
</linearGradient>
<linearGradient id="paint15_linear_605_2" x1="13.2648" y1="5.9507" x2="12.5456" y2="7.67376" gradientUnits="userSpaceOnUse">
<stop stop-color="#00DA60"/>
<stop offset="1" stop-color="#3F3F9E"/>
</linearGradient>
<linearGradient id="paint16_linear_605_2" x1="13.2785" y1="13.9531" x2="15.5085" y2="14.2283" gradientUnits="userSpaceOnUse">
<stop stop-color="#00DA60"/>
<stop offset="1" stop-color="#3F3F9E"/>
</linearGradient>
<linearGradient id="paint17_linear_605_2" x1="12.7648" y1="12.6317" x2="12.7648" y2="15.5376" gradientUnits="userSpaceOnUse">
<stop stop-color="#54E694"/>
<stop offset="1" stop-color="#635FED"/>
</linearGradient>
<linearGradient id="paint18_linear_605_2" x1="13.2543" y1="15.6824" x2="9.40322" y2="15.9997" gradientUnits="userSpaceOnUse">
<stop stop-color="#0B873D"/>
<stop offset="1" stop-color="#202059"/>
</linearGradient>
<linearGradient id="paint19_linear_605_2" x1="9.01613" y1="5.57425" x2="10.1386" y2="14.4609" gradientUnits="userSpaceOnUse">
<stop stop-color="#33E180"/>
<stop offset="1" stop-color="#4E55C4"/>
</linearGradient>
<linearGradient id="paint20_linear_605_2" x1="12.8519" y1="6.53609" x2="10.3836" y2="14.7354" gradientUnits="userSpaceOnUse">
<stop stop-color="#54E694"/>
<stop offset="1" stop-color="#635FED"/>
</linearGradient>
<linearGradient id="paint21_linear_605_2" x1="12.4747" y1="14.9984" x2="14.9669" y2="12.141" gradientUnits="userSpaceOnUse">
<stop stop-color="#33E180"/>
<stop offset="1" stop-color="#4E55C4"/>
</linearGradient>
<linearGradient id="paint22_linear_605_2" x1="11.2339" y1="16.2814" x2="9.16641" y2="15.3685" gradientUnits="userSpaceOnUse">
<stop stop-color="#0B873D"/>
<stop offset="1" stop-color="#202059"/>
</linearGradient>
<linearGradient id="paint23_linear_605_2" x1="13.1802" y1="5.90377" x2="14.3467" y2="8.79146" gradientUnits="userSpaceOnUse">
<stop stop-color="#33E180"/>
<stop offset="1" stop-color="#4E55C4"/>
</linearGradient>
<linearGradient id="paint24_linear_605_2" x1="23.6394" y1="6.55672" x2="21.9449" y2="5.67637" gradientUnits="userSpaceOnUse">
<stop stop-color="#54E694"/>
<stop offset="1" stop-color="#635FED"/>
</linearGradient>
<linearGradient id="paint25_linear_605_2" x1="23.6151" y1="6.42103" x2="25.0957" y2="8.75912" gradientUnits="userSpaceOnUse">
<stop stop-color="#33E180"/>
<stop offset="1" stop-color="#4E55C4"/>
</linearGradient>
<linearGradient id="paint26_linear_605_2" x1="23.615" y1="6.55677" x2="24.21" y2="8.97311" gradientUnits="userSpaceOnUse">
<stop stop-color="#0B873D"/>
<stop offset="1" stop-color="#202059"/>
</linearGradient>
<linearGradient id="paint27_linear_605_2" x1="23.615" y1="6.55672" x2="21.9967" y2="5.89501" gradientUnits="userSpaceOnUse">
<stop stop-color="#00DA60"/>
<stop offset="1" stop-color="#3F3F9E"/>
</linearGradient>
<linearGradient id="paint28_linear_605_2" x1="17.2976" y1="6.82808" x2="16.2613" y2="5.79453" gradientUnits="userSpaceOnUse">
<stop stop-color="#33E180"/>
<stop offset="1" stop-color="#4E55C4"/>
</linearGradient>
<linearGradient id="paint29_linear_605_2" x1="17.3466" y1="6.71957" x2="16.0899" y2="8.78122" gradientUnits="userSpaceOnUse">
<stop stop-color="#0B873D"/>
<stop offset="1" stop-color="#202059"/>
</linearGradient>
<linearGradient id="paint30_linear_605_2" x1="17.2241" y1="6.71953" x2="19.0982" y2="5.74659" gradientUnits="userSpaceOnUse">
<stop stop-color="#54E694"/>
<stop offset="1" stop-color="#635FED"/>
</linearGradient>
<linearGradient id="paint31_linear_605_2" x1="17.2975" y1="6.74667" x2="19.1858" y2="5.8487" gradientUnits="userSpaceOnUse">
<stop stop-color="#00DA60"/>
<stop offset="1" stop-color="#3F3F9E"/>
</linearGradient>
<linearGradient id="paint32_linear_605_2" x1="20.187" y1="9.27035" x2="18.8986" y2="6.09972" gradientUnits="userSpaceOnUse">
<stop stop-color="#00DA60"/>
<stop offset="1" stop-color="#3F3F9E"/>
</linearGradient>
<linearGradient id="paint33_linear_605_2" x1="21.7585" y1="8.92952" x2="20.6967" y2="4.22239" gradientUnits="userSpaceOnUse">
<stop stop-color="#54E694"/>
<stop offset="1" stop-color="#635FED"/>
</linearGradient>
<linearGradient id="paint34_linear_605_2" x1="20.0645" y1="9.29754" x2="22.5031" y2="6.08531" gradientUnits="userSpaceOnUse">
<stop stop-color="#33E180"/>
<stop offset="1" stop-color="#4E55C4"/>
</linearGradient>
<linearGradient id="paint35_linear_605_2" x1="20.1869" y1="9.27035" x2="21.4373" y2="14.5089" gradientUnits="userSpaceOnUse">
<stop stop-color="#00DA60"/>
<stop offset="1" stop-color="#3F3F9E"/>
</linearGradient>
<linearGradient id="paint36_linear_605_2" x1="19.0361" y1="15.946" x2="21.3345" y2="14.8399" gradientUnits="userSpaceOnUse">
<stop stop-color="#0B873D"/>
<stop offset="1" stop-color="#202059"/>
</linearGradient>
<linearGradient id="paint37_linear_605_2" x1="20.187" y1="9.24325" x2="21.3789" y2="14.4865" gradientUnits="userSpaceOnUse">
<stop stop-color="#33E180"/>
<stop offset="1" stop-color="#4E55C4"/>
</linearGradient>
<linearGradient id="paint38_linear_605_2" x1="32.9283" y1="7.04179" x2="29.4344" y2="4.77536" gradientUnits="userSpaceOnUse">
<stop stop-color="#54E694"/>
<stop offset="1" stop-color="#635FED"/>
</linearGradient>
<linearGradient id="paint39_linear_605_2" x1="31.835" y1="6.23116" x2="28.773" y2="10.0849" gradientUnits="userSpaceOnUse">
<stop stop-color="#00DA60"/>
<stop offset="1" stop-color="#3F3F9E"/>
</linearGradient>
<linearGradient id="paint40_linear_605_2" x1="32.6732" y1="7.80444" x2="34.0503" y2="12.1653" gradientUnits="userSpaceOnUse">
<stop stop-color="#33E180"/>
<stop offset="1" stop-color="#4E55C4"/>
</linearGradient>
<linearGradient id="paint41_linear_605_2" x1="32.0299" y1="8.07355" x2="32.0299" y2="15.4513" gradientUnits="userSpaceOnUse">
<stop stop-color="#00DA60"/>
<stop offset="1" stop-color="#3F3F9E"/>
</linearGradient>
<linearGradient id="paint42_linear_605_2" x1="32.6491" y1="6.73511" x2="29.1931" y2="15.6867" gradientUnits="userSpaceOnUse">
<stop stop-color="#54E694"/>
<stop offset="1" stop-color="#4E55C4"/>
</linearGradient>
<linearGradient id="paint43_linear_605_2" x1="32.8134" y1="13.9126" x2="29.1688" y2="15.695" gradientUnits="userSpaceOnUse">
<stop stop-color="#0B873D"/>
<stop offset="1" stop-color="#202059"/>
</linearGradient>
<linearGradient id="paint44_linear_605_2" x1="28.5183" y1="9.88327" x2="26.6655" y2="4.06639" gradientUnits="userSpaceOnUse">
<stop stop-color="#54E694"/>
<stop offset="1" stop-color="#635FED"/>
</linearGradient>
<linearGradient id="paint45_linear_605_2" x1="27.6634" y1="6.54947" x2="30.4815" y2="14.8327" gradientUnits="userSpaceOnUse">
<stop stop-color="#33E180"/>
<stop offset="1" stop-color="#4E55C4"/>
</linearGradient>
<linearGradient id="paint46_linear_605_2" x1="26.5355" y1="10.6026" x2="24.6485" y2="5.55225" gradientUnits="userSpaceOnUse">
<stop stop-color="#33E180"/>
<stop offset="1" stop-color="#4E55C4"/>
</linearGradient>
<linearGradient id="paint47_linear_605_2" x1="24.5763" y1="11.2185" x2="29.161" y2="15.8706" gradientUnits="userSpaceOnUse">
<stop stop-color="#0B873D"/>
<stop offset="1" stop-color="#202059"/>
</linearGradient>
<linearGradient id="paint48_linear_605_2" x1="25.8694" y1="9.00308" x2="28.7933" y2="16.119" gradientUnits="userSpaceOnUse">
<stop stop-color="#00DA60"/>
<stop offset="1" stop-color="#3F3F9E"/>
</linearGradient>
<linearGradient id="paint49_linear_605_2" x1="41.1995" y1="9.07845" x2="38.672" y2="11.3167" gradientUnits="userSpaceOnUse">
<stop stop-color="#0B873D"/>
<stop offset="1" stop-color="#202059"/>
</linearGradient>
<linearGradient id="paint50_linear_605_2" x1="41.5313" y1="9.11554" x2="41.9265" y2="10.7225" gradientUnits="userSpaceOnUse">
<stop stop-color="#00DA60"/>
<stop offset="1" stop-color="#3F3F9E"/>
</linearGradient>
<linearGradient id="paint51_linear_605_2" x1="41.4977" y1="9.08844" x2="40.4952" y2="4.80668" gradientUnits="userSpaceOnUse">
<stop stop-color="#54E694"/>
<stop offset="1" stop-color="#635FED"/>
</linearGradient>
<linearGradient id="paint52_linear_605_2" x1="37.5773" y1="8.8244" x2="39.0646" y2="6.20812" gradientUnits="userSpaceOnUse">
<stop stop-color="#33E180"/>
<stop offset="1" stop-color="#4E55C4"/>
</linearGradient>
<linearGradient id="paint53_linear_605_2" x1="35.7789" y1="9.66961" x2="32.5877" y2="6.33251" gradientUnits="userSpaceOnUse">
<stop stop-color="#33E180"/>
<stop offset="1" stop-color="#4E55C4"/>
</linearGradient>
<linearGradient id="paint54_linear_605_2" x1="36.1126" y1="8.45811" x2="37.3468" y2="15.8775" gradientUnits="userSpaceOnUse">
<stop stop-color="#00DA60"/>
<stop offset="1" stop-color="#3F3F9E"/>
</linearGradient>
<linearGradient id="paint55_linear_605_2" x1="38.2357" y1="9.40291" x2="33.0515" y2="14.0868" gradientUnits="userSpaceOnUse">
<stop stop-color="#54E694"/>
<stop offset="1" stop-color="#635FED"/>
</linearGradient>
<linearGradient id="paint56_linear_605_2" x1="38.3347" y1="13.2299" x2="35.008" y2="16.0421" gradientUnits="userSpaceOnUse">
<stop stop-color="#0B873D"/>
<stop offset="1" stop-color="#202059"/>
</linearGradient>
<linearGradient id="paint57_linear_605_2" x1="35.9896" y1="7.97338" x2="36.37" y2="5.46364" gradientUnits="userSpaceOnUse">
<stop stop-color="#54E694"/>
<stop offset="1" stop-color="#635FED"/>
</linearGradient>
<linearGradient id="paint58_linear_605_2" x1="41.014" y1="9.50561" x2="38.2" y2="5.49706" gradientUnits="userSpaceOnUse">
<stop stop-color="#33E180"/>
<stop offset="1" stop-color="#4E55C4"/>
</linearGradient>
<linearGradient id="paint59_linear_605_2" x1="40.2754" y1="10.5141" x2="37.3539" y2="8.25377" gradientUnits="userSpaceOnUse">
<stop stop-color="#00DA60"/>
<stop offset="1" stop-color="#3F3F9E"/>
</linearGradient>
<clipPath id="clip0_605_2">
<rect width="42" height="16" fill="white"/>
</clipPath>
</defs>
</svg>
